<svg width="66" height="65" viewBox="0 0 66 65" fill="none" xmlns="http://www.w3.org/2000/svg">
<circle cx="33" cy="32.5" r="32.5" fill="#DC7000" fill-opacity="0.09"/>
<g clip-path="url(#clip0_80_941)">
<path d="M26.2012 36.2793C25.5054 36.2793 24.9414 36.8433 24.9414 37.5391V40.0586C24.9414 40.7543 25.5054 41.3184 26.2012 41.3184C26.8969 41.3184 27.4609 40.7543 27.4609 40.0586V37.5391C27.4609 36.8433 26.8969 36.2793 26.2012 36.2793Z" fill="#F79009"/>
<path d="M38.7988 41.3184C39.4946 41.3184 40.0586 40.7543 40.0586 40.0586V37.5391C40.0586 36.8433 39.4946 36.2793 38.7988 36.2793C38.1031 36.2793 37.5391 36.8433 37.5391 37.5391V40.0586C37.5391 40.7543 38.1031 41.3184 38.7988 41.3184Z" fill="#F79009"/>
<path d="M33.8438 19.9023H47.6172C48.3129 19.9023 48.877 19.3383 48.877 18.6426C48.877 17.9469 48.3129 17.3828 47.6172 17.3828H33.8438C33.148 17.3828 32.584 17.9469 32.584 18.6426C32.584 19.3383 33.148 19.9023 33.8438 19.9023Z" fill="#F79009"/>
<path d="M54 25.7812V16.459C54 13.4489 51.5511 11 48.541 11H32.9199C29.9098 11 27.4609 13.4489 27.4609 16.459V26.2012H25.7812C21.1766 26.2012 17.3149 29.4404 16.3536 33.7598H16.123V25.9845C17.5893 25.4645 18.6426 24.0642 18.6426 22.4219C18.6426 20.338 16.9472 18.6426 14.8633 18.6426C12.7794 18.6426 11.084 20.338 11.084 22.4219C11.084 24.0642 12.1372 25.4645 13.6035 25.9845V33.948C12.0937 34.4436 11 35.8656 11 37.5391V42.5781C11 44.662 12.6954 46.3574 14.7793 46.3574H16.3353C17.2649 50.7186 21.1468 54 25.7812 54H39.2188C43.8532 54 47.7351 50.7186 48.6647 46.3574H50.2207C52.3046 46.3574 54 44.662 54 42.5781V37.5391C54 35.4552 52.3046 33.7598 50.2207 33.7598H48.6459C48.4501 32.8796 48.1323 32.0316 47.7013 31.2402H48.541C51.5511 31.2402 54 28.7913 54 25.7812ZM29.9805 16.459C29.9805 14.8382 31.2991 13.5195 32.9199 13.5195H48.541C50.1618 13.5195 51.4805 14.8382 51.4805 16.459V25.7812C51.4805 27.4021 50.1618 28.7207 48.541 28.7207H33.7598C33.5642 28.7207 33.3713 28.7662 33.1964 28.8536L29.9805 30.4616V16.459ZM14.8633 21.1621C15.5579 21.1621 16.123 21.7272 16.123 22.4219C16.123 23.1165 15.5579 23.6816 14.8633 23.6816C14.1686 23.6816 13.6035 23.1165 13.6035 22.4219C13.6035 21.7272 14.1686 21.1621 14.8633 21.1621ZM13.5195 42.5781V37.5391C13.5195 36.8444 14.0847 36.2793 14.7793 36.2793H16.123V43.8379H14.7793C14.0847 43.8379 13.5195 43.2728 13.5195 42.5781ZM51.4805 37.5391V42.5781C51.4805 43.2728 50.9153 43.8379 50.2207 43.8379H48.877V36.2793H50.2207C50.9153 36.2793 51.4805 36.8444 51.4805 37.5391ZM46.3574 35.8594V44.3418C46.3574 48.2781 43.155 51.4805 39.2188 51.4805H25.7812C21.845 51.4805 18.6426 48.2781 18.6426 44.3418V35.8594C18.6426 31.9231 21.845 28.7207 25.7812 28.7207H27.4609V32.5C27.4609 33.4349 28.4471 34.0453 29.2841 33.6267L34.0572 31.2402H44.6594C45.7544 32.5289 46.3574 34.1632 46.3574 35.8594Z" fill="#F79009"/>
<path d="M33.8438 24.9414H47.6172C48.3129 24.9414 48.877 24.3774 48.877 23.6816C48.877 22.9859 48.3129 22.4219 47.6172 22.4219H33.8438C33.148 22.4219 32.584 22.9859 32.584 23.6816C32.584 24.3774 33.148 24.9414 33.8438 24.9414Z" fill="#F79009"/>
<path d="M28.7207 45.0977C28.7207 45.7934 29.2847 46.3574 29.9805 46.3574H35.0195C35.7153 46.3574 36.2793 45.7934 36.2793 45.0977C36.2793 44.4019 35.7153 43.8379 35.0195 43.8379H29.9805C29.2847 43.8379 28.7207 44.4019 28.7207 45.0977Z" fill="#F79009"/>
</g>
<defs>
<clipPath id="clip0_80_941">
<rect width="43" height="43" fill="white" transform="translate(11 11)"/>
</clipPath>
</defs>
</svg>
