<svg width="66" height="65" viewBox="0 0 66 65" fill="none" xmlns="http://www.w3.org/2000/svg">
<circle cx="33" cy="32.5" r="32.5" fill="#DC7000" fill-opacity="0.09"/>
<path d="M54.415 45.0975L37.4739 15.3408C35.748 12.3093 31.2523 12.3086 29.5259 15.3408L28.5943 16.9773C28.2039 17.6629 29.2821 18.318 29.69 17.6011L30.6216 15.9647C31.8705 13.771 35.1292 13.7711 36.3781 15.9647L53.3192 45.7213C54.5597 47.9004 52.9365 50.672 50.441 50.672H16.559C14.0635 50.672 12.4403 47.9004 13.6807 45.7213L28.049 20.4836C28.4393 19.798 27.3614 19.143 26.9532 19.8598L12.5849 45.0975C10.8781 48.0954 13.119 51.9329 16.5589 51.9329H50.4409C53.8807 51.9329 56.1221 48.096 54.415 45.0975Z" fill="#F79009"/>
<path d="M48.3423 42.2216C48.6449 42.0493 48.7505 41.6644 48.5783 41.3617L34.6606 16.9158C34.1632 16.038 32.8435 16.0306 32.3409 16.9136L15.4002 46.6695C14.9056 47.5362 15.5524 48.6685 16.5588 48.6685H50.4414C51.4404 48.6685 52.0969 47.5432 51.6007 46.6708L50.2302 44.2636C49.8399 43.5778 48.7263 44.1706 49.1345 44.8874L50.5048 47.2943C50.5377 47.3522 50.4934 47.4075 50.4414 47.4075H16.5588C16.5069 47.4075 16.4624 47.3523 16.4957 47.2939L33.4366 17.5375C33.467 17.484 33.5343 17.4859 33.5642 17.5385L47.4825 41.9857C47.6548 42.2882 48.0398 42.3938 48.3423 42.2216Z" fill="#F79009"/>
<path d="M35.8091 28.4732C35.8091 27.1865 34.773 26.1396 33.4993 26.1396C32.2256 26.1396 31.1895 27.1865 31.1895 28.4732V36.459C31.1895 37.7457 32.2256 38.7925 33.4993 38.7925C34.773 38.7925 35.8091 37.7457 35.8091 36.459V28.4732ZM34.5482 36.459C34.5482 37.0504 34.0776 37.5316 33.4993 37.5316C32.9209 37.5316 32.4504 37.0504 32.4504 36.459V28.4732C32.4504 27.8817 32.9209 27.4006 33.4993 27.4006C34.0776 27.4006 34.5482 27.8817 34.5482 28.4732V36.459Z" fill="#F79009"/>
<path d="M33.4993 39.9307C32.2257 39.9307 31.1895 40.9775 31.1895 42.2642C31.1895 43.5509 32.2256 44.5977 33.4993 44.5977C34.773 44.5977 35.8091 43.5509 35.8091 42.2642C35.8091 40.9775 34.7729 39.9307 33.4993 39.9307ZM33.4993 43.3367C32.9209 43.3367 32.4504 42.8556 32.4504 42.2641C32.4504 41.6727 32.9209 41.1915 33.4993 41.1915C34.0776 41.1915 34.5482 41.6727 34.5482 42.2641C34.5482 42.8556 34.0776 43.3367 33.4993 43.3367Z" fill="#F79009"/>
<path d="M46.5237 23.9581C48.6365 24.4378 49.9824 26.5491 49.5237 28.6649C49.3594 29.4237 50.5735 29.7741 50.7561 28.932C51.3604 26.1434 49.587 23.3605 46.8028 22.7286C46.0336 22.5533 45.7194 23.7755 46.5237 23.9581Z" fill="#F79009"/>
<path d="M47.387 20.4421C51.3944 21.3517 53.9469 25.3565 53.0769 29.3696C52.9126 30.1283 54.1267 30.4789 54.3093 29.6367C55.325 24.9507 52.3449 20.2744 47.6661 19.2125C46.8968 19.037 46.5827 20.2595 47.387 20.4421Z" fill="#F79009"/>
<path d="M16.2432 28.932C16.4136 29.7179 17.6484 29.4629 17.4755 28.6648C17.017 26.5492 18.3628 24.4378 20.4755 23.9581C21.2448 23.7834 21.0005 22.5449 20.1964 22.7285C17.4122 23.3605 15.6388 26.1434 16.2432 28.932Z" fill="#F79009"/>
<path d="M13.3064 30.134C13.7001 30.134 14.0076 29.7594 13.9232 29.3699C13.0532 25.3568 15.6058 21.352 19.6131 20.4425C20.3824 20.2678 20.1381 19.0293 19.334 19.2128C14.6552 20.2748 11.6751 24.9511 12.6908 29.6371C12.7549 29.9324 13.0161 30.134 13.3064 30.134Z" fill="#F79009"/>
</svg>
