<svg width="66" height="65" viewBox="0 0 66 65" fill="none" xmlns="http://www.w3.org/2000/svg">
<circle cx="33" cy="32.5" r="32.5" fill="#DC7000" fill-opacity="0.09"/>
<path d="M33.5829 14.3599C33.1185 14.3565 32.7397 14.7303 32.7364 15.1939C32.733 15.6574 33.1059 16.0362 33.5703 16.0396C34.0339 16.0429 34.4127 15.67 34.416 15.2064C34.4194 14.7429 34.0465 14.3641 33.5829 14.3599Z" fill="#F79009"/>
<path d="M33.5442 19.3986C30.3015 19.3756 27.6458 21.9916 27.6213 25.2333C27.5968 28.4749 30.2143 31.1318 33.456 31.1563C33.471 31.1563 33.486 31.1564 33.501 31.1564C36.7221 31.1564 39.3546 28.5482 39.3789 25.3215C39.4034 22.0801 36.786 19.423 33.5442 19.3986ZM33.5009 29.4768C33.4903 29.4768 33.4792 29.4767 33.4686 29.4766C31.1531 29.4592 29.2834 27.5613 29.3009 25.2459C29.3183 22.941 31.1985 21.078 33.4993 21.078C33.5099 21.078 33.521 21.0781 33.5316 21.0782C35.8471 21.0957 37.7168 22.9935 37.6993 25.3089C37.6819 27.6139 35.8017 29.4768 33.5009 29.4768Z" fill="#F79009"/>
<path d="M37.1637 14.9968C36.7268 14.8417 36.2465 15.0706 36.0914 15.5078C35.9365 15.945 36.1653 16.425 36.6025 16.58C40.3018 17.8911 42.7671 21.4144 42.7376 25.3471C42.7341 25.8109 43.1073 26.1897 43.5711 26.1932C43.5732 26.1932 43.5754 26.1932 43.5776 26.1932C44.0383 26.1932 44.4137 25.8214 44.4172 25.3597C44.4522 20.7114 41.5372 16.5469 37.1637 14.9968Z" fill="#F79009"/>
<path d="M38.6534 42.6153C44.2394 35.425 47.7304 31.6755 47.7775 25.3847C47.8367 17.4697 41.4134 11 33.499 11C25.677 11 19.2826 17.3348 19.2231 25.1705C19.1751 31.6319 22.7309 35.3763 28.3555 42.6141C22.7601 43.4503 19.2231 45.5513 19.2231 48.1212C19.2231 49.8426 20.8143 51.3873 23.7036 52.4707C26.3334 53.4569 29.8127 54 33.5003 54C37.188 54 40.6672 53.4569 43.2971 52.4707C46.1864 51.3872 47.7775 49.8425 47.7775 48.1211C47.7775 45.5527 44.2439 43.4521 38.6534 42.6153ZM20.9027 25.1832C20.9552 18.2689 26.5968 12.6797 33.4992 12.6797C40.4832 12.6797 46.15 18.3896 46.0979 25.3722C46.0533 31.3463 42.3511 35.028 36.4405 42.733C35.3862 44.1066 34.418 45.4054 33.5016 46.6758C32.5878 45.4046 31.639 44.1291 30.5689 42.7325C24.4141 34.7049 20.8572 31.3015 20.9027 25.1832ZM33.5003 52.3204C26.2902 52.3204 20.9027 50.1035 20.9027 48.1212C20.9027 46.6511 24.1234 44.794 29.5385 44.151C30.7356 45.7216 31.785 47.1485 32.8144 48.6058C32.9716 48.8283 33.2271 48.9608 33.4996 48.961C33.4998 48.961 33.5001 48.961 33.5003 48.961C33.7726 48.961 34.028 48.829 34.1855 48.6068C35.2051 47.1685 36.2833 45.7064 37.47 44.1519C42.8802 44.7956 46.0979 46.6521 46.0979 48.1213C46.0979 50.1035 40.7105 52.3204 33.5003 52.3204Z" fill="#F79009"/>
</svg>
