<svg width="66" height="65" viewBox="0 0 66 65" fill="none" xmlns="http://www.w3.org/2000/svg">
<circle cx="33" cy="32.5" r="32.5" fill="#DC7000" fill-opacity="0.09"/>
<g clip-path="url(#clip0_80_900)">
<path d="M50.4554 21.0465L32.7479 12.0597C32.5909 11.9801 32.4081 11.9801 32.2512 12.0597L14.5436 21.0465C14.3462 21.1467 14.2207 21.3569 14.2207 21.5874V43.4126C14.2207 43.6431 14.3462 43.8533 14.5436 43.9535L32.2511 52.9403C32.3296 52.9801 32.4146 53 32.4995 53C32.5844 53 32.6694 52.9801 32.7479 52.9403L50.4554 43.9535C50.6529 43.8533 50.7783 43.6431 50.7783 43.4126V21.5875C50.7783 21.3568 50.6528 21.1468 50.4554 21.0465ZM32.4995 13.2675L48.893 21.5874L44.1409 23.9992C44.1108 23.9751 44.079 23.9528 44.0441 23.9351L27.762 15.6719L32.4995 13.2675ZM26.4718 16.3509L42.8414 24.6587L39.4887 26.3603L23.1259 18.0559L26.4718 16.3509ZM43.2244 25.7981V32.0879L40.0928 33.6773V27.3875L43.2244 25.7981ZM49.6357 43.0358L33.0708 51.4425V30.9512L37.0221 28.9459C37.3062 28.8016 37.4253 28.4426 37.2881 28.1439C37.151 27.8453 36.8095 27.7199 36.5253 27.8642L32.4995 29.9074L30.9154 29.1034C30.6313 28.959 30.2898 29.0844 30.1526 29.3831C30.0154 29.6818 30.1345 30.0408 30.4187 30.1851L31.9282 30.9512V51.4425L15.3633 43.0356V22.5442L27.9773 28.9461C28.0574 28.9868 28.142 29.006 28.2253 29.006C28.4377 29.006 28.6416 28.8809 28.7401 28.6664C28.8773 28.3677 28.7582 28.0086 28.4741 27.8644L16.106 21.5874L21.7812 18.7071L38.9423 27.4167C38.9448 27.4204 38.9476 27.4236 38.9502 27.4273V34.6342C38.9502 34.8409 39.0513 35.033 39.2178 35.1429C39.3103 35.204 39.4158 35.2348 39.5216 35.2348C39.6063 35.2348 39.6912 35.215 39.7699 35.175L44.0441 33.0058C44.2416 32.9056 44.367 32.6955 44.367 32.465V25.2183L49.6357 22.5443V43.0358Z" fill="#F79009"/>
<path d="M20.0786 40.7064L17.48 39.3876C17.1957 39.2432 16.8543 39.3686 16.7171 39.6673C16.5799 39.966 16.6991 40.3251 16.9832 40.4693L19.5818 41.7881C19.6618 41.8288 19.7465 41.848 19.8297 41.848C20.0421 41.848 20.2461 41.7229 20.3446 41.5084C20.4818 41.2096 20.3627 40.8507 20.0786 40.7064Z" fill="#F79009"/>
<path d="M22.4704 39.0697L17.4838 36.5389C17.1996 36.3947 16.8582 36.5199 16.721 36.8187C16.5839 37.1174 16.703 37.4764 16.9871 37.6207L21.9737 40.1514C22.0538 40.192 22.1384 40.2113 22.2216 40.2113C22.434 40.2113 22.638 40.0863 22.7365 39.8717C22.8737 39.5729 22.7545 39.2138 22.4704 39.0697Z" fill="#F79009"/>
</g>
<defs>
<clipPath id="clip0_80_900">
<rect width="39" height="41" fill="white" transform="translate(13 12)"/>
</clipPath>
</defs>
</svg>
