<svg width="66" height="65" viewBox="0 0 66 65" fill="none" xmlns="http://www.w3.org/2000/svg">
<circle cx="33" cy="32.5" r="32.5" fill="#DC7000" fill-opacity="0.09"/>
<g clip-path="url(#clip0_80_929)">
<path d="M49.9306 22.2982H47.0442C46.5453 22.2982 46.1265 22.6431 46.0108 23.1067H44.4431C43.9552 23.1067 43.4999 23.0169 43.09 22.8399C42.4877 22.5798 41.8497 22.4479 41.1937 22.4479H35.4333C34.5911 22.4479 33.9011 23.094 33.8624 23.9188C33.8538 24.0991 33.8759 24.2753 33.9263 24.4422C33.1972 24.5517 32.6315 25.1506 32.5965 25.895C32.5883 26.0689 32.6084 26.239 32.6551 26.4005C31.8515 26.4068 31.1695 27.036 31.1246 27.8578C31.0914 27.7603 31.0483 27.6645 30.9948 27.5718L28.6366 23.4871L29.3677 23.6615C29.7973 23.7639 30.2563 23.6848 30.6268 23.4437C31.639 22.7852 31.6002 21.2902 30.471 20.877L29.813 20.6364C29.4868 20.5171 29.1938 20.3467 28.9423 20.13C28.4584 19.713 27.6519 19.174 26.5579 18.9743C26.1837 18.906 25.8612 18.68 25.6731 18.3542L25.0732 17.3152C25.4167 16.9831 25.5061 16.4481 25.2568 16.016C25.2567 16.016 25.2567 16.016 25.2567 16.016L23.8134 13.5163C23.5286 13.0231 22.8955 12.8534 22.4023 13.1382L15.5514 17.0936C15.0581 17.3783 14.8886 18.0114 15.1734 18.5047L16.6165 21.0043C16.8681 21.4402 17.3764 21.6282 17.8339 21.496L18.6172 22.8527C18.8612 23.2753 19.0111 23.7145 19.0628 24.158C19.1386 24.8097 19.3434 25.4282 19.6714 25.9962L22.5516 30.9849C22.9727 31.7142 23.8772 31.9886 24.6109 31.6099C24.7712 31.5272 24.9129 31.4199 25.0322 31.2929C25.4914 31.8695 26.2931 32.06 26.9554 31.7181C27.11 31.6382 27.2473 31.5357 27.3638 31.4145C27.7294 32.0365 28.4954 32.338 29.2012 32.0915C29.1641 32.1414 29.1286 32.1931 29.0967 32.2484L26.7384 36.3331L26.5239 35.6128C26.2598 34.7257 25.3037 34.2391 24.4307 34.5485C23.813 34.7676 23.4471 35.3989 23.5608 36.0495L23.6814 36.7398C23.7411 37.0819 23.74 37.4207 23.6781 37.747C23.559 38.3746 23.4954 39.3426 23.8694 40.3898C23.9974 40.7481 23.9629 41.1403 23.7749 41.4661L23.1751 42.5049C22.7101 42.3707 22.2065 42.5657 21.9581 42.9959L20.515 45.4955C20.2296 45.9899 20.3986 46.6212 20.8932 46.9067L27.7439 50.862C28.2376 51.1469 28.8704 50.9768 29.1551 50.4838L30.5984 47.9841C30.8477 47.5521 30.7584 47.017 30.4148 46.685L31.1987 45.3273C31.4426 44.9048 31.7479 44.5554 32.1063 44.2888C32.6329 43.8972 33.0661 43.4106 33.3939 42.8426L34.1711 41.4964C34.3248 41.2302 34.2336 40.8898 33.9674 40.7361C33.701 40.5823 33.3606 40.6736 33.207 40.9398L32.4298 42.286C32.1782 42.7217 31.8459 43.0951 31.4419 43.3956C30.961 43.7532 30.5548 44.2159 30.2345 44.7706L29.467 46.0998L24.1556 43.0332L24.7391 42.0227C25.0908 41.4135 25.156 40.6818 24.918 40.0153C24.628 39.2035 24.6784 38.4466 24.7719 37.9545C24.8589 37.496 24.861 37.0229 24.7781 36.5481L24.6575 35.8578C24.6379 35.7458 24.7004 35.6341 24.8028 35.5977C25.0771 35.5007 25.3743 35.6531 25.4569 35.9304L25.8778 37.3439C25.9693 37.6512 26.2344 37.874 26.5529 37.9113C26.8702 37.9486 27.1807 37.7936 27.3411 37.5158L30.0609 32.805C30.1823 32.595 30.4446 32.5087 30.6454 32.6124C30.8676 32.7272 30.9444 33.0002 30.8224 33.212C30.8223 33.212 30.8223 33.2121 30.8223 33.2123L28.348 37.4979C28.1943 37.7641 28.2855 38.1045 28.5517 38.2582C28.8183 38.4121 29.1586 38.3204 29.3121 38.0545C32.0882 33.2461 30.8546 35.3827 32.5087 32.5179C32.63 32.3079 32.8923 32.2217 33.0932 32.3254C33.3143 32.4395 33.393 32.7123 33.27 32.9252C33.0396 33.3243 30.5255 37.679 30.0595 38.486C29.9058 38.7522 29.997 39.0927 30.2632 39.2464C30.5298 39.4003 30.8701 39.3086 31.0236 39.0427L33.4979 34.7571C33.6212 34.5435 33.8971 34.4763 34.1057 34.6103C34.2962 34.7326 34.3525 35.0028 34.2313 35.2127L33.6134 36.2829C33.6125 36.2845 31.7719 39.4725 31.771 39.4741C31.6173 39.7403 31.7085 40.0808 31.9748 40.2345C32.2414 40.3883 32.5816 40.2967 32.7351 40.0308L34.5764 36.8415C34.6994 36.6287 34.9747 36.5602 35.1843 36.6947C35.3748 36.817 35.4311 37.0872 35.3099 37.2971L34.5062 38.6892C34.3525 38.9555 34.4437 39.2959 34.7099 39.4496C34.9762 39.6033 35.3166 39.512 35.4703 39.2459L36.274 37.8537C36.6951 37.1245 36.4806 36.2038 35.7856 35.7578C35.6338 35.6603 35.4701 35.5912 35.3004 35.5515C35.5702 34.8653 35.3343 34.076 34.7071 33.6734C34.5606 33.5794 34.4031 33.5117 34.2399 33.4714C34.6387 32.768 34.4321 31.8498 33.7181 31.4025C33.8605 31.4439 34.0113 31.4663 34.1674 31.4663H38.8839L38.3674 32.0122C37.7312 32.6846 37.7879 33.756 38.4923 34.3572C38.9911 34.7827 39.7208 34.7834 40.2272 34.3599L40.7646 33.9104C41.031 33.6876 41.325 33.5192 41.6384 33.4096C42.2416 33.1991 43.1116 32.7701 43.8316 31.9225C44.0778 31.6325 44.4348 31.4663 44.8109 31.4663H46.0107C46.1265 31.9298 46.5453 32.2747 47.0442 32.2747H49.9306C50.5002 32.2747 50.9635 31.8113 50.9635 31.2417V28.3754C50.9635 28.068 50.7144 27.8187 50.4069 27.8187C50.0994 27.8187 49.8503 28.068 49.8503 28.3754V31.1616H47.0912C47.0912 30.2298 47.0912 24.3389 47.0912 23.4115H49.8503V25.7778C49.8503 26.0853 50.0994 26.3345 50.4069 26.3345C50.7144 26.3345 50.9635 26.0853 50.9635 25.7778V23.3313C50.9636 22.7616 50.5003 22.2982 49.9306 22.2982ZM28.231 49.8576L21.5193 45.9826L22.8988 43.5932C24.0413 44.2528 29.0204 47.1276 29.6106 47.4682L28.231 49.8576ZM16.1777 18.0175L22.8895 14.1425L24.2691 16.5319C24.2449 16.5458 17.6326 20.3634 17.5572 20.4069L16.1777 18.0175ZM28.93 30.9943C28.7205 31.1287 28.4451 31.0606 28.322 30.8476C27.1598 28.8345 26.1118 27.0194 25.1114 25.2867C24.9577 25.0205 24.6172 24.9294 24.3511 25.083C24.0848 25.2367 23.9936 25.5772 24.1473 25.8434L26.6217 30.129L26.6222 30.1299C26.7441 30.342 26.6663 30.6144 26.4447 30.7287C26.244 30.8326 25.9815 30.7463 25.8603 30.5363C24.7807 28.6665 25.3645 29.6776 23.4 26.2749C23.2464 26.0086 22.9058 25.9175 22.6396 26.0712C22.3734 26.2249 22.2822 26.5653 22.4359 26.8315L24.277 30.0205C24.2771 30.0206 24.2771 30.0208 24.2771 30.0208L24.2779 30.0222C24.3995 30.2342 24.3217 30.5063 24.1003 30.6206C23.8994 30.7246 23.6371 30.6381 23.5158 30.4281L20.6356 25.4394C20.3839 25.0037 20.2268 24.5292 20.1686 24.0292C20.0992 23.4339 19.9017 22.8508 19.5814 22.296L18.8139 20.9668L24.1254 17.9002L24.7089 18.9109C25.0606 19.5201 25.6616 19.9423 26.3579 20.0694C27.2059 20.2242 27.8361 20.6464 28.2155 20.9733C28.569 21.2779 28.9778 21.5163 29.4304 21.682L30.0884 21.9226C30.3433 22.0158 30.2529 22.3587 30.0194 22.5105C29.9019 22.5869 29.7622 22.6111 29.6259 22.5786L28.1915 22.2364C27.5074 22.0735 26.9598 22.8096 27.3108 23.4176L30.0306 28.1284C30.1518 28.3383 30.0955 28.6086 29.9051 28.7308C29.6957 28.8651 29.4203 28.7973 29.2973 28.5841L26.8229 24.2985C26.6692 24.0323 26.3287 23.941 26.0626 24.0948C25.7963 24.2485 25.7051 24.5889 25.8588 24.8551C29.0821 30.4379 28.3113 29.1028 29.0554 30.3918C29.1767 30.6019 29.1203 30.8721 28.93 30.9943ZM31.5648 31.9272C31.4482 31.8059 31.3108 31.7032 31.156 31.6233C30.7659 31.4219 30.328 31.4069 29.9397 31.545C30.2839 31.0713 30.3392 30.4201 30.039 29.8699C30.2022 29.8296 30.3599 29.7619 30.5065 29.6678C30.9371 29.3914 31.1828 28.9326 31.2075 28.4502C31.4159 29.0466 31.9841 29.4735 32.6553 29.4897C32.6085 29.6514 32.5883 29.8217 32.5965 29.9956C32.6209 30.5151 32.9041 30.9634 33.3206 31.2243C32.6627 31.0373 31.9394 31.3134 31.5648 31.9272ZM42.9832 31.202C42.4251 31.859 41.7444 32.1937 41.2716 32.3587C40.8309 32.5127 40.42 32.7474 40.0504 33.0566L39.513 33.5062C39.4257 33.5791 39.2976 33.581 39.215 33.5105C38.9947 33.3226 38.9764 32.9887 39.1761 32.7776L40.1896 31.7066C40.673 31.1959 40.3088 30.3532 39.6071 30.3532H34.1674C33.925 30.3532 33.7191 30.1693 33.7084 29.9433C33.6969 29.6941 33.894 29.4902 34.1395 29.4902H39.088C39.3955 29.4902 39.6447 29.241 39.6447 28.9336C39.6447 28.6262 39.3955 28.3769 39.088 28.3769C38.3197 28.3769 33.4611 28.3769 32.6949 28.3769C32.4524 28.3769 32.2466 28.193 32.2359 27.9671C32.2241 27.7172 32.4222 27.514 32.6669 27.514H39.088C39.3955 27.514 39.6447 27.2648 39.6447 26.9573C39.6447 26.6499 39.3955 26.4007 39.088 26.4007H34.1395C33.8945 26.4007 33.6968 26.1972 33.7085 25.9476C33.7191 25.7216 33.925 25.5377 34.1674 25.5377H39.088C39.3955 25.5377 39.6447 25.2885 39.6447 24.9811C39.6447 24.6737 39.3955 24.4244 39.088 24.4244H35.4054C35.4053 24.4244 35.4052 24.4244 35.4052 24.4244C35.1608 24.4242 34.9627 24.2215 34.9745 23.9713C34.9851 23.7453 35.191 23.5614 35.4334 23.5614H41.1938C41.6971 23.5614 42.1866 23.6626 42.6486 23.8622C43.1988 24.0998 43.8026 24.2203 44.4432 24.2203H45.9781V30.3534H44.8111C44.1076 30.3532 43.4414 30.6625 42.9832 31.202Z" fill="#F79009"/>
</g>
<defs>
<clipPath id="clip0_80_929">
<rect width="38" height="38" fill="white" transform="translate(14 13)"/>
</clipPath>
</defs>
</svg>
