<svg width="66" height="65" viewBox="0 0 66 65" fill="none" xmlns="http://www.w3.org/2000/svg">
<circle cx="33" cy="32.5" r="32.5" fill="#DC7000" fill-opacity="0.09"/>
<g clip-path="url(#clip0_80_955)">
<path d="M33.4238 18.3486C32.9601 18.3486 32.584 18.7246 32.584 19.1885C32.584 19.6523 32.9601 20.0283 33.4238 20.0283H36.185C36.1907 22.0277 36.8396 23.8953 37.9448 25.4197C36.7997 26.5359 35.2996 27.2978 33.6133 27.5095C33.1531 27.5673 32.8268 27.9872 32.8846 28.4473C32.9379 28.872 33.2995 29.1826 33.7168 29.1826C33.7516 29.1826 33.787 29.1804 33.8224 29.176C35.851 28.9213 37.6601 28.0163 39.0509 26.6871C40.4416 28.0163 42.2508 28.9213 44.2793 29.176C44.3148 29.1804 44.35 29.1826 44.385 29.1826C44.8021 29.1826 45.1638 28.872 45.2172 28.4473C45.2749 27.9871 44.9488 27.5672 44.4884 27.5095C42.8021 27.2978 41.302 26.5359 40.1569 25.4197C41.2621 23.8952 41.911 22.0277 41.9167 20.0283H44.6777C45.1415 20.0283 45.5176 19.6523 45.5176 19.1885C45.5176 18.7246 45.1415 18.3486 44.6777 18.3486H39.8906V16.165C39.8906 15.7012 39.5145 15.3252 39.0508 15.3252C38.587 15.3252 38.2109 15.7012 38.2109 16.165V18.3486H33.4238ZM39.0508 24.0598C38.3032 22.8877 37.87 21.5023 37.8649 20.0283H40.2366C40.2315 21.5023 39.7983 22.8877 39.0508 24.0598Z" fill="#F79009"/>
<path d="M49.5456 11H42.8301C42.3663 11 41.9902 11.376 41.9902 11.8398C41.9902 12.3037 42.3663 12.6797 42.8301 12.6797H49.5456C51.0757 12.6797 52.3203 13.9244 52.3203 15.4544V29.0534C52.3203 30.5834 51.0756 31.8281 49.5456 31.8281C49.0818 31.8281 48.7057 32.2041 48.7057 32.668V36.2216L43.7953 32.0293C43.6433 31.8994 43.45 31.8281 43.25 31.8281H28.5559C27.0259 31.8281 25.7812 30.5834 25.7812 29.0534V15.4544C25.7812 13.9244 27.0259 12.6797 28.5559 12.6797H35.2715C35.7352 12.6797 36.1113 12.3037 36.1113 11.8398C36.1113 11.376 35.7352 11 35.2715 11H28.5559C26.0998 11 24.1016 12.9982 24.1016 15.4544V26.1172H15.4544C12.9982 26.1172 11 28.1154 11 30.5716V44.1706C11 46.3397 12.5586 48.1517 14.6145 48.5456V53.1602C14.6145 53.4879 14.8052 53.7856 15.1027 53.9228C15.2152 53.9746 15.3351 54 15.4543 54C15.6506 54 15.8446 53.9313 15.9998 53.7989L22.0597 48.625H36.444C38.9002 48.625 40.8984 46.6268 40.8984 44.1706V33.5078H42.9403L49.0002 38.6817C49.1554 38.8141 49.3494 38.8829 49.5457 38.8828C49.6649 38.8828 49.7848 38.8574 49.8973 38.8056C50.1948 38.6684 50.3855 38.3707 50.3855 38.043L50.3856 33.4284C52.4415 33.0345 54.0001 31.2225 54.0001 29.0534V15.4544C54 12.9982 52.0018 11 49.5456 11ZM25.9629 34.4741L27.6268 38.883H24.2838L25.9629 34.4741ZM39.2188 44.1706C39.2188 45.7006 37.9741 46.9453 36.4441 46.9453H21.75C21.55 46.9453 21.3567 47.0166 21.2047 47.1465L16.2942 51.3389V47.7852C16.2942 47.3213 15.9181 46.9453 15.4544 46.9453C13.9243 46.9453 12.6797 45.7006 12.6797 44.1706V30.5716C12.6797 29.0416 13.9243 27.7969 15.4544 27.7969H24.1016V29.0534C24.1016 30.1744 24.5187 31.1992 25.2047 31.983C25.1137 32.0776 25.0393 32.1899 24.9874 32.3167C24.9848 32.3231 24.9822 32.3295 24.9799 32.336L21.385 41.7748C21.2199 42.2083 21.4374 42.6934 21.8709 42.8585C22.3043 43.0236 22.7895 42.8061 22.9546 42.3726L23.6439 40.5628H28.2606L28.9427 42.3702C29.0696 42.7065 29.3891 42.9137 29.7285 42.9137C29.827 42.9137 29.9272 42.8963 30.0249 42.8594C30.4588 42.6956 30.6778 42.211 30.514 41.7771L27.3278 33.3343C27.7182 33.4464 28.1298 33.5078 28.5557 33.5078H39.2188V44.1706Z" fill="#F79009"/>
<path d="M39.0508 12.6797C39.2717 12.6797 39.4883 12.5898 39.6445 12.4336C39.8008 12.2774 39.8906 12.0607 39.8906 11.8398C39.8906 11.619 39.8008 11.4023 39.6445 11.2461C39.4883 11.0899 39.2717 11 39.0508 11C38.8299 11 38.6132 11.0899 38.457 11.2461C38.3007 11.4023 38.2109 11.619 38.2109 11.8398C38.2109 12.0607 38.3007 12.2774 38.457 12.4336C38.6133 12.5898 38.8299 12.6797 39.0508 12.6797Z" fill="#F79009"/>
</g>
<defs>
<clipPath id="clip0_80_955">
<rect width="43" height="43" fill="white" transform="translate(11 11)"/>
</clipPath>
</defs>
</svg>
